<?xml version="1.0" encoding="utf-8"?>
<!-- Generator: Adobe Illustrator 18.0.0, SVG Export Plug-In . SVG Version: 6.00 Build 0)  -->
<!DOCTYPE svg PUBLIC "-//W3C//DTD SVG 1.1//EN" "http://www.w3.org/Graphics/SVG/1.1/DTD/svg11.dtd">
<svg version="1.1" xmlns="http://www.w3.org/2000/svg" xmlns:xlink="http://www.w3.org/1999/xlink" x="0px" y="0px"
	 viewBox="0 0 960 560" enable-background="new 0 0 960 560" xml:space="preserve">
<g id="N2">
	<g id="tube-end_30_">
		<path fill="#FF173D" d="M672.6,224.8l8.9-6.4l5,6.9c1.4,2,1,4.8-1,6.2l-1.8,1.3c-1.9,1.4-4.7,1-6.1-1L672.6,224.8z"/>
		<path fill="#01B900" d="M680.2,219.3c0.1,0.1,0.3,0.3,0.4,0.5l6.5,9.1c0.3-1.2,0-2.5-0.7-3.5l-5-6.9L680.2,219.3z"/>
		<path fill="#01B900" d="M674.1,224.4c-0.1-0.2-0.2-0.4-0.3-0.5l-1.2,0.9l5,7c0.8,1,1.9,1.6,3.1,1.8L674.1,224.4z"/>
	</g>
	<g id="tube-end_29_">
		<path fill="#FF173D" d="M541.5,217.2h10.9v8.5c0,2.4-2,4.4-4.4,4.4h-2.2c-2.4,0-4.3-1.9-4.3-4.3V217.2z"/>
		<path fill="#01B900" d="M545.8,230.2h2.2c2,0,3.6-1.3,4.2-3.1c-0.1,0-0.2,0.1-0.2,0.1c-2.3,3.6-9.3,2.7-9.3-2.7v-7.3h-1.2v8.6
			C541.5,228.2,543.4,230.2,545.8,230.2z"/>
	</g>
	<g>
		<path fill="none" stroke="#1EC11A" stroke-width="15" stroke-linecap="round" stroke-miterlimit="10" d="M547.5,211.4V60.3
			c0-20.3,9.1-23.1,20.2-6L675,218.6"/>
	</g>
	<g id="tube-end_28_">
		<path fill="#FF173D" d="M686.4,37.2h-10.9v-8.5c0-2.4,2-4.4,4.4-4.4h2.2c2.4,0,4.3,1.9,4.3,4.3V37.2z"/>
		<path fill="#01B900" d="M677,37.2c0-0.2-0.1-0.4-0.1-0.6V25.4c-0.9,0.8-1.5,2-1.5,3.3v8.5H677z"/>
		<path fill="#01B900" d="M685,36.6c0,0.2,0,0.4-0.1,0.6h1.5v-8.6c0-1.3-0.6-2.4-1.5-3.2V36.6z"/>
	</g>
	<g id="tube-end_27_">
		<path fill="#FF173D" d="M675.5,187.2h10.9v8.5c0,2.4-2,4.4-4.4,4.4h-2.2c-2.4,0-4.3-1.9-4.3-4.3V187.2z"/>
		<path fill="#01B900" d="M679.8,200.2h2.2c2,0,3.6-1.3,4.2-3.1c-0.1,0-0.2,0.1-0.2,0.1c-2.3,3.6-9.3,2.7-9.3-2.7v-7.3h-1.2v8.6
			C675.5,198.2,677.4,200.2,679.8,200.2z"/>
	</g>
	<path fill="#01B900" d="M678.5,35.4h5c3.3,0,6,2.7,6,6v141c0,3.3-2.7,6-6,6h-5c-3.3,0-6-2.7-6-6v-141
		C672.5,38.1,675.2,35.4,678.5,35.4z"/>
</g>
<g id="O">
	<g id="in_bet">
		<path fill="#01B900" d="M423,31c-55.7,0-101,45.3-101,101s45.3,101,101,101s101-45.3,101-101S478.7,31,423,31z M423,221
			c-4.2,0-8.2-0.3-12.3-0.8c0.5,1.2-0.1,2.8-1.7,2.6c-5.3-0.7-10.2-1.1-15-3.5c-2.3-1.2-4.6-3.2-7.2-3.8c-2.2-0.5-4.1-0.9-6.1-2
			c-1.4-0.8-1.1-2.5-0.2-3.3C352.8,195.1,334,165.7,334,132c0-49.1,39.9-89,89-89c7.4,0,14.6,0.9,21.4,2.6c-0.3-1.2,0.3-2.5,1.8-2.4
			c6.3,0.7,11.6,3.8,17.3,6.5c1.4,0.7,1.2,2.3,0.3,3.1C492.4,67.7,512,97.6,512,132C512,181.1,472.1,221,423,221z"/>
	</g>
	<circle id="tube-end_26_" fill="none" stroke="#B70030" stroke-width="8" stroke-miterlimit="10" cx="423" cy="132" r="95"/>
	<g>
		<path fill="#01B900" d="M381.8,209.2c-27.5-14.8-46.3-43.8-46.3-77.2c0-48.2,39.3-87.5,87.5-87.5c7.6,0,15,1,22,2.8l6-13.9
			c-8.9-2.5-18.3-3.9-28-3.9c-56.5,0-102.5,46-102.5,102.5c0,39.7,22.7,74.2,55.8,91.2L381.8,209.2z"/>
		<path fill="#01B900" d="M467,39.4l-6,13.8c29.3,14.2,49.5,44.2,49.5,78.8c0,48.2-39.3,87.5-87.5,87.5c-4.7,0-9.3-0.4-13.8-1.1
			l-5.6,14.2c6.3,1.2,12.7,1.8,19.3,1.8c56.5,0,102.5-46,102.5-102.5C525.5,91.2,501.5,55.9,467,39.4z"/>
	</g>
</g>
<g id="G">
	<g id="in_bet_1_">
		<path fill="#01B900" d="M340,453c-4.2,0-8.2-0.3-12.3-0.8c0.5,1.2-0.1,2.8-1.7,2.6c-5.3-0.7-10.2-1.1-15-3.5
			c-2.3-1.2-4.6-3.2-7.2-3.8c-2.2-0.5-4.1-0.9-6.1-2c-1.4-0.8-1.1-2.5-0.2-3.3C269.8,427.1,251,397.7,251,364c0-49.1,39.9-89,89-89
			c7.4,0,14.6,0.9,21.4,2.6c-0.3-1.2,0.3-2.5,1.8-2.4c6.3,0.7,11.6,3.8,17.3,6.5c1.4,0.7,1.2,2.3,0.3,3.1
			c14.8,7.7,27.3,19.4,35.8,33.8c3.6-1.8,7.2-3.5,10.7-5.5c-17.5-30-50.1-50.2-87.2-50.2c-55.7,0-101,45.3-101,101s45.3,101,101,101
			c47.7,0,87.7-33.2,98.3-77.7h-12.4C415.6,425.1,381,453,340,453z"/>
	</g>
	<g id="tube-end_2_">
		<g>
			<path fill="#B70030" d="M429.2,382.3C420.5,424.4,383,455,340,455c-50.2,0-91-40.8-91-91s40.8-91,91-91
				c32.4,0,62.6,17.4,78.8,45.5c1.4,2.5,2.6,4.9,2.6,4.9c0.7,1.5,2.7,2.7,4.3,2.8c0,0,1.2-0.4,2.2-1.7c1-1.3,1.2-3.5,0.5-5
				c0,0-1.2-2.5-2.7-5C408.1,284,375.2,265,340,265c-54.6,0-99,44.4-99,99s44.4,99,99,99c46.8,0,87.6-33.2,97-79.1
				c0.8-3.8,1.3-7.5,1.3-7.5c0.2-1.6-1-3-2.6-3h-2c-1.6,0-3.2,1.3-3.4,3C430.2,376.5,429.8,379.1,429.2,382.3z"/>
		</g>
	</g>
	<g>
		<g>
			<path fill="#01B900" d="M340,261.5c-56.5,0-102.5,46-102.5,102.5c0,39.7,22.7,74.2,55.8,91.2l5.5-14.1
				c-27.5-14.8-46.3-43.8-46.3-77.2c0-48.2,39.3-87.5,87.5-87.5c7.6,0,15,1,22,2.8l6-13.9C359.1,262.9,349.7,261.5,340,261.5z"/>
		</g>
		<path fill="#01B900" d="M424.8,385.5c-9.6,37.9-44,66-84.8,66c-4.7,0-9.3-0.4-13.8-1.1l-5.6,14.2c6.3,1.2,12.7,1.8,19.3,1.8
			c49.1,0,90.3-34.8,100.2-81H424.8z"/>
		<path fill="#01B900" d="M428.3,312c-11.8-20.5-23.3-30.6-44.3-40.6l-6,13.8c15.6,7.5,28.6,19.5,37.3,34.3L428.3,312z"/>
	</g>
	<g id="tube-end_1_">
		<path fill="#FF173D" d="M431,370V359h8.5c2.4,0,4.4,2,4.4,4.4v2.2c0,2.4-1.9,4.3-4.3,4.3H431z"/>
		<path fill="#01B900" d="M431,360.6c0.2,0,0.4-0.1,0.6-0.1h11.2c-0.8-0.9-2-1.5-3.3-1.5H431V360.6z"/>
		<path fill="#01B900" d="M431.6,368.5c-0.2,0-0.4,0-0.6-0.1v1.5h8.6c1.3,0,2.4-0.6,3.2-1.5H431.6z"/>
	</g>
	<g id="tube-end">
		<path fill="#FF173D" d="M356,359V370h-8.5c-2.4,0-4.4-2-4.4-4.4v-2.2c0-2.4,1.9-4.3,4.3-4.3H356z"/>
		<path fill="#01B900" d="M343,363.4v2.2c0,2,1.3,3.6,3.1,4.2c0-0.1-0.1-0.2-0.1-0.2c-3.6-2.3-2.7-9.3,2.7-9.3h7.3V359h-8.6
			C345,359,343,361,343,363.4z"/>
	</g>
	<path fill="#01B900" d="M430.5,362v5c0,3.3-2.7,6-6,6h-65c-3.3,0-6-2.7-6-6v-5c0-3.3,2.7-6,6-6h65C427.8,356,430.5,358.7,430.5,362
		z"/>
</g>
<g id="U">
	<g id="tube-end_25_">
		<path fill="#FF173D" d="M553.5,278.7h-10.9v-8.5c0-2.4,2-4.4,4.4-4.4h2.2c2.4,0,4.3,1.9,4.3,4.3V278.7z"/>
		<path fill="#01B900" d="M549.1,265.7H547c-2,0-3.6,1.3-4.2,3.1c0.1,0,0.2-0.1,0.2-0.1c2.3-3.6,9.3-2.7,9.3,2.7v7.3h1.2v-8.6
			C553.5,267.7,551.5,265.7,549.1,265.7z"/>
	</g>
	<g id="tube-end_24_">
		<path fill="#FF173D" d="M689.5,278.7h-10.9v-8.5c0-2.4,2-4.4,4.4-4.4h2.2c2.4,0,4.3,1.9,4.3,4.3V278.7z"/>
		<path fill="#01B900" d="M685.1,265.7H683c-2,0-3.6,1.3-4.2,3.1c0.1,0,0.2-0.1,0.2-0.1c2.3-3.6,9.3-2.7,9.3,2.7v7.3h1.2v-8.6
			C689.5,267.7,687.5,265.7,685.1,265.7z"/>
	</g>
	<g>
		<g>
			<path fill="#01B900" d="M659.2,466.5h-86.4c-17.5,0-31.8-17.4-31.8-38.7V283.1c0-3.9,3.1-7.1,7-7.1l0,0c3.9,0,7,3.2,7,7.1v144.7
				c0,13.3,8.2,24.5,17.8,24.5h86.4c9.7,0,17.8-11.2,17.8-24.5V283.1c0-3.9,3.1-7.1,7-7.1l0,0c3.9,0,7,3.2,7,7.1v144.7
				C691,449.1,676.7,466.5,659.2,466.5z"/>
			<path fill="#01B900" d="M659.2,468h-86.4c-18.4,0-33.3-18-33.3-40.2V283.1c0-4.7,3.8-8.6,8.5-8.6s8.5,3.9,8.5,8.6v144.7
				c0,12.5,7.5,23,16.3,23h86.4c8.8,0,16.3-10.5,16.3-23V283.1c0-4.7,3.8-8.6,8.5-8.6s8.5,3.9,8.5,8.6v144.7
				C692.5,450,677.6,468,659.2,468z M548,277.5c-3,0-5.5,2.5-5.5,5.6v144.7c0,20.5,13.6,37.2,30.3,37.2h86.4
				c16.7,0,30.3-16.7,30.3-37.2V283.1c0-3.1-2.5-5.6-5.5-5.6s-5.5,2.5-5.5,5.6v144.7c0,14.1-8.8,26-19.3,26h-86.4
				c-10.5,0-19.3-11.9-19.3-26V283.1C553.5,280,551,277.5,548,277.5z"/>
		</g>
	</g>
</g>
<g id="L">
	<g id="tube-end_23_">
		<path fill="#FF173D" d="M67.5,454.7h10.9v8.5c0,2.4-2,4.4-4.4,4.4h-2.2c-2.4,0-4.3-1.9-4.3-4.3V454.7z"/>
		<path fill="#01B900" d="M76.9,454.7c0,0.2,0.1,0.4,0.1,0.6v11.2c0.9-0.8,1.5-2,1.5-3.3v-8.5H76.9z"/>
		<path fill="#01B900" d="M69,455.3c0-0.2,0-0.4,0.1-0.6h-1.5v8.6c0,1.3,0.6,2.4,1.5,3.2V455.3z"/>
	</g>
	<g id="tube-end_22_">
		<path fill="#FF173D" d="M78.5,271.7H67.5v-8.5c0-2.4,2-4.4,4.4-4.4h2.2c2.4,0,4.3,1.9,4.3,4.3V271.7z"/>
		<path fill="#01B900" d="M74.1,258.7H72c-2,0-3.6,1.3-4.2,3.1c0.1,0,0.2-0.1,0.2-0.1c2.3-3.6,9.3-2.7,9.3,2.7v7.3h1.2v-8.6
			C78.5,260.7,76.5,258.7,74.1,258.7z"/>
	</g>
	<path fill="#01B900" d="M75.5,455.5h-5c-3.3,0-6-2.7-6-6v-171c0-3.3,2.7-6,6-6h5c3.3,0,6,2.7,6,6v171
		C81.5,452.8,78.8,455.5,75.5,455.5z"/>
	<g id="tube-end_21_">
		<path fill="#FF173D" d="M177,463V452h8.5c2.4,0,4.4,2,4.4,4.4v2.2c0,2.4-1.9,4.3-4.3,4.3H177z"/>
		<path fill="#01B900" d="M177,453.6c0.2,0,0.4-0.1,0.6-0.1h11.2c-0.8-0.9-2-1.5-3.3-1.5H177V453.6z"/>
		<path fill="#01B900" d="M177.6,461.5c-0.2,0-0.4,0-0.6-0.1v1.5h8.6c1.3,0,2.4-0.6,3.2-1.5H177.6z"/>
	</g>
	<g id="tube-end_20_">
		<path fill="#FF173D" d="M100,452V463h-8.5c-2.4,0-4.4-2-4.4-4.4v-2.2c0-2.4,1.9-4.3,4.3-4.3H100z"/>
		<path fill="#01B900" d="M87,456.4v2.2c0,2,1.3,3.6,3.1,4.2c0-0.1-0.1-0.2-0.1-0.2c-3.6-2.3-2.7-9.3,2.7-9.3h7.3V452h-8.6
			C89,452,87,454,87,456.4z"/>
	</g>
	<path fill="#01B900" d="M176,455v5c0,3.3-2.7,6-6,6h-64c-3.3,0-6-2.7-6-6v-5c0-3.3,2.7-6,6-6h64C173.3,449,176,451.7,176,455z"/>
</g>
<g id="E2">
	<g id="tube-end_19_">
		<path fill="#FF173D" d="M768.5,457.7h10.9v8.5c0,2.4-2,4.4-4.4,4.4h-2.2c-2.4,0-4.3-1.9-4.3-4.3V457.7z"/>
		<path fill="#01B900" d="M777.9,457.7c0,0.2,0.1,0.4,0.1,0.6v11.2c0.9-0.8,1.5-2,1.5-3.3v-8.5H777.9z"/>
		<path fill="#01B900" d="M770,458.3c0-0.2,0-0.4,0.1-0.6h-1.5v8.6c0,1.3,0.6,2.4,1.5,3.2V458.3z"/>
	</g>
	<g id="tube-end_18_">
		<path fill="#FF173D" d="M779.5,274.7h-10.9v-8.5c0-2.4,2-4.4,4.4-4.4h2.2c2.4,0,4.3,1.9,4.3,4.3V274.7z"/>
		<path fill="#01B900" d="M775.1,261.7H773c-2,0-3.6,1.3-4.2,3.1c0.1,0,0.2-0.1,0.2-0.1c2.3-3.6,9.3-2.7,9.3,2.7v7.3h1.2v-8.6
			C779.5,263.7,777.5,261.7,775.1,261.7z"/>
	</g>
	<path fill="#01B900" d="M776.5,458.5h-5c-3.3,0-6-2.7-6-6v-171c0-3.3,2.7-6,6-6h5c3.3,0,6,2.7,6,6v171
		C782.5,455.8,779.8,458.5,776.5,458.5z"/>
	<g>
		<path fill="#FF173D" d="M878,466V455h8.5c2.4,0,4.4,2,4.4,4.4v2.2c0,2.4-1.9,4.3-4.3,4.3H878z"/>
		<path fill="#01B900" d="M878,456.6c0.2,0,0.4-0.1,0.6-0.1h11.2c-0.8-0.9-2-1.5-3.3-1.5H878V456.6z"/>
		<path fill="#01B900" d="M878.6,464.5c-0.2,0-0.4,0-0.6-0.1v1.5h8.6c1.3,0,2.4-0.6,3.2-1.5H878.6z"/>
	</g>
	<g id="tube-end_17_">
		<path fill="#FF173D" d="M801,455V466h-8.5c-2.4,0-4.4-2-4.4-4.4v-2.2c0-2.4,1.9-4.3,4.3-4.3H801z"/>
		<path fill="#01B900" d="M788,459.4v2.2c0,2,1.3,3.6,3.1,4.2c0-0.1-0.1-0.2-0.1-0.2c-3.6-2.3-2.7-9.3,2.7-9.3h7.3V455h-8.6
			C790,455,788,457,788,459.4z"/>
	</g>
	<path fill="#01B900" d="M877,458v5c0,3.3-2.7,6-6,6h-64c-3.3,0-6-2.7-6-6v-5c0-3.3,2.7-6,6-6h64C874.3,452,877,454.7,877,458z"/>
	<g id="tube-end_16_">
		<path fill="#FF173D" d="M865,368V357h8.5c2.4,0,4.4,2,4.4,4.4v2.2c0,2.4-1.9,4.3-4.3,4.3H865z"/>
		<path fill="#01B900" d="M865,358.6c0.2,0,0.4-0.1,0.6-0.1h11.2c-0.8-0.9-2-1.5-3.3-1.5H865V358.6z"/>
		<path fill="#01B900" d="M865.6,366.5c-0.2,0-0.4,0-0.6-0.1v1.5h8.6c1.3,0,2.4-0.6,3.2-1.5H865.6z"/>
	</g>
	<g id="tube-end_15_">
		<path fill="#FF173D" d="M800,357V368h-8.5c-2.4,0-4.4-2-4.4-4.4v-2.2c0-2.4,1.9-4.3,4.3-4.3H800z"/>
		<path fill="#01B900" d="M787,361.4v2.2c0,2,1.3,3.6,3.1,4.2c0-0.1-0.1-0.2-0.1-0.2c-3.6-2.3-2.7-9.3,2.7-9.3h7.3V357h-8.6
			C789,357,787,359,787,361.4z"/>
	</g>
	<path fill="#01B900" d="M866.3,360v5c0,3.3-2.7,6-6,6h-54c-3.3,0-6-2.7-6-6v-5c0-3.3,2.7-6,6-6h54C863.6,354,866.3,356.7,866.3,360
		z"/>
	<g id="tube-end_14_">
		<path fill="#FF173D" d="M876,275V264h8.5c2.4,0,4.4,2,4.4,4.4v2.2c0,2.4-1.9,4.3-4.3,4.3H876z"/>
		<path fill="#01B900" d="M876,265.6c0.2,0,0.4-0.1,0.6-0.1h11.2c-0.8-0.9-2-1.5-3.3-1.5H876V265.6z"/>
		<path fill="#01B900" d="M876.6,273.5c-0.2,0-0.4,0-0.6-0.1v1.5h8.6c1.3,0,2.4-0.6,3.2-1.5H876.6z"/>
	</g>
	<g id="tube-end_13_">
		<path fill="#FF173D" d="M799,264V275h-8.5c-2.4,0-4.4-2-4.4-4.4v-2.2c0-2.4,1.9-4.3,4.3-4.3H799z"/>
		<path fill="#01B900" d="M786,268.4v2.2c0,2,1.3,3.6,3.1,4.2c0-0.1-0.1-0.2-0.1-0.2c-3.6-2.3-2.7-9.3,2.7-9.3h7.3V264h-8.6
			C788,264,786,266,786,268.4z"/>
	</g>
	<path fill="#01B900" d="M875,267v5c0,3.3-2.7,6-6,6h-64c-3.3,0-6-2.7-6-6v-5c0-3.3,2.7-6,6-6h64C872.3,261,875,263.7,875,267z"/>
</g>
<g id="E">
	<g id="tube-end_12_">
		<path fill="#FF173D" d="M320,44V33h8.5c2.4,0,4.4,2,4.4,4.4v2.2c0,2.4-1.9,4.3-4.3,4.3H320z"/>
		<path fill="#01B900" d="M320,34.6c0.2,0,0.4-0.1,0.6-0.1h11.2c-0.8-0.9-2-1.5-3.3-1.5H320V34.6z"/>
		<path fill="#01B900" d="M320.6,42.5c-0.2,0-0.4,0-0.6-0.1V44h8.6c1.3,0,2.4-0.6,3.2-1.5H320.6z"/>
	</g>
	<g id="tube-end_11_">
		<path fill="#FF173D" d="M233,33V44h-8.5c-2.4,0-4.4-2-4.4-4.4v-2.2c0-2.4,1.9-4.3,4.3-4.3H233z"/>
		<path fill="#01B900" d="M220,37.4v2.2c0,2,1.3,3.6,3.1,4.2c0-0.1-0.1-0.2-0.1-0.2c-3.6-2.3-2.7-9.3,2.7-9.3h7.3V33h-8.6
			C222,33,220,35,220,37.4z"/>
	</g>
	<path fill="#01B900" d="M319.8,36v5c0,3.3-2.7,6-6,6h-75c-3.3,0-6-2.7-6-6v-5c0-3.3,2.7-6,6-6h75C317.1,30,319.8,32.7,319.8,36z"/>
	<g id="tube-end_10_">
		<path fill="#FF173D" d="M322,229V218h8.5c2.4,0,4.4,2,4.4,4.4v2.2c0,2.4-1.9,4.3-4.3,4.3H322z"/>
		<path fill="#01B900" d="M322,219.6c0.2,0,0.4-0.1,0.6-0.1h11.2c-0.8-0.9-2-1.5-3.3-1.5H322V219.6z"/>
		<path fill="#01B900" d="M322.6,227.5c-0.2,0-0.4,0-0.6-0.1v1.5h8.6c1.3,0,2.4-0.6,3.2-1.5H322.6z"/>
	</g>
	<g id="tube-end_9_">
		<path fill="#FF173D" d="M235,218V229h-8.5c-2.4,0-4.4-2-4.4-4.4v-2.2c0-2.4,1.9-4.3,4.3-4.3H235z"/>
		<path fill="#01B900" d="M222,222.4v2.2c0,2,1.3,3.6,3.1,4.2c0-0.1-0.1-0.2-0.1-0.2c-3.6-2.3-2.7-9.3,2.7-9.3h7.3V218h-8.6
			C224,218,222,220,222,222.4z"/>
	</g>
	<path fill="#01B900" d="M321.8,221v5c0,3.3-2.7,6-6,6h-75c-3.3,0-6-2.7-6-6v-5c0-3.3,2.7-6,6-6h75C319.1,215,321.8,217.7,321.8,221
		z"/>
	<g id="tube-end_8_">
		<path fill="#FF173D" d="M299,137V126h8.5c2.4,0,4.4,2,4.4,4.4v2.2c0,2.4-1.9,4.3-4.3,4.3H299z"/>
		<path fill="#01B900" d="M299,127.6c0.2,0,0.4-0.1,0.6-0.1h11.2c-0.8-0.9-2-1.5-3.3-1.5H299V127.6z"/>
		<path fill="#01B900" d="M299.6,135.5c-0.2,0-0.4,0-0.6-0.1v1.5h8.6c1.3,0,2.4-0.6,3.2-1.5H299.6z"/>
	</g>
	<g id="tube-end_7_">
		<path fill="#FF173D" d="M234,126V137h-8.5c-2.4,0-4.4-2-4.4-4.4v-2.2c0-2.4,1.9-4.3,4.3-4.3H234z"/>
		<path fill="#01B900" d="M221,130.4v2.2c0,2,1.3,3.6,3.1,4.2c0-0.1-0.1-0.2-0.1-0.2c-3.6-2.3-2.7-9.3,2.7-9.3h7.3V126h-8.6
			C223,126,221,128,221,130.4z"/>
	</g>
	<path fill="#01B900" d="M300.3,129v5c0,3.3-2.7,6-6,6h-54c-3.3,0-6-2.7-6-6v-5c0-3.3,2.7-6,6-6h54C297.6,123,300.3,125.7,300.3,129
		z"/>
</g>
<g id="N">
	<g id="tube-end_6_">
		<path fill="#FF173D" d="M81.4,37.1l-8.9,6.4l-5-6.9c-1.4-2-1-4.8,1-6.2l1.8-1.3c1.9-1.4,4.7-1,6.1,1L81.4,37.1z"/>
		<path fill="#01B900" d="M73.8,42.6c-0.1-0.1-0.3-0.3-0.4-0.5l-6.5-9.1c-0.3,1.2,0,2.5,0.7,3.5l5,6.9L73.8,42.6z"/>
		<path fill="#01B900" d="M79.9,37.5c0.1,0.2,0.2,0.4,0.3,0.5l1.2-0.9l-5-7c-0.8-1-1.9-1.6-3.1-1.8L79.9,37.5z"/>
	</g>
	<g id="tube-end_4_">
		<path fill="#FF173D" d="M212.5,44.7h-10.9v-8.5c0-2.4,2-4.4,4.4-4.4h2.2c2.4,0,4.3,1.9,4.3,4.3V44.7z"/>
		<path fill="#01B900" d="M208.1,31.7H206c-2,0-3.6,1.3-4.2,3.1c0.1,0,0.2-0.1,0.2-0.1c2.3-3.6,9.3-2.7,9.3,2.7v7.3h1.2v-8.6
			C212.5,33.7,210.5,31.7,208.1,31.7z"/>
	</g>
	<g>
		<path fill="none" stroke="#1EC11A" stroke-width="15" stroke-linecap="round" stroke-miterlimit="10" d="M206.5,50.5v151.1
			c0,20.4-9.1,23.1-20.2,6L79,43.3"/>
	</g>
	<g id="tube-end_5_">
		<path fill="#FF173D" d="M67.5,224.7h10.9v8.5c0,2.4-2,4.4-4.4,4.4h-2.2c-2.4,0-4.3-1.9-4.3-4.3V224.7z"/>
		<path fill="#01B900" d="M76.9,224.7c0,0.2,0.1,0.4,0.1,0.6v11.2c0.9-0.8,1.5-2,1.5-3.3v-8.5H76.9z"/>
		<path fill="#01B900" d="M69,225.3c0-0.2,0-0.4,0.1-0.6h-1.5v8.6c0,1.3,0.6,2.4,1.5,3.2V225.3z"/>
	</g>
	<g id="tube-end_3_">
		<path fill="#FF173D" d="M78.5,74.7H67.5v-8.5c0-2.4,2-4.4,4.4-4.4h2.2c2.4,0,4.3,1.9,4.3,4.3V74.7z"/>
		<path fill="#01B900" d="M74.1,61.7H72c-2,0-3.6,1.3-4.2,3.1c0.1,0,0.2-0.1,0.2-0.1c2.3-3.6,9.3-2.7,9.3,2.7v7.3h1.2v-8.6
			C78.5,63.7,76.5,61.7,74.1,61.7z"/>
	</g>
	<path fill="#01B900" d="M75.5,226.5h-5c-3.3,0-6-2.7-6-6v-141c0-3.3,2.7-6,6-6h5c3.3,0,6,2.7,6,6v141
		C81.5,223.8,78.8,226.5,75.5,226.5z"/>
</g>
</svg>
