<?xml version="1.0" encoding="utf-8"?>
<!-- Generator: Adobe Illustrator 18.0.0, SVG Export Plug-In . SVG Version: 6.00 Build 0)  -->
<!DOCTYPE svg PUBLIC "-//W3C//DTD SVG 1.1//EN" "http://www.w3.org/Graphics/SVG/1.1/DTD/svg11.dtd">
<svg version="1.1" xmlns="http://www.w3.org/2000/svg" xmlns:xlink="http://www.w3.org/1999/xlink" x="0px" y="0px"
	 viewBox="0 0 1097.945 501.079" enable-background="new 0 0 1097.945 501.079" xml:space="preserve">
<g id="subE1">
	
		<line fill="none" stroke="#B79F16" stroke-width="11" stroke-linecap="round" stroke-miterlimit="28" x1="967.886" y1="454.083" x2="1055.886" y2="454.083"/>
	
		<line fill="none" stroke="#B79F16" stroke-width="11" stroke-linecap="round" stroke-miterlimit="28" x1="968.386" y1="361.083" x2="1045.386" y2="361.083"/>
	
		<line fill="none" stroke="#B79F16" stroke-width="11" stroke-linecap="round" stroke-miterlimit="28" x1="967.886" y1="268.083" x2="1055.886" y2="268.083"/>
	
		<line fill="none" stroke="#B79F16" stroke-width="11" stroke-linecap="round" stroke-miterlimit="28" x1="948.72" y1="263.5" x2="948.72" y2="458.5"/>
</g>
<g id="E1">
	
		<line fill="none" stroke="#159BBA" stroke-width="17" stroke-linecap="round" stroke-miterlimit="28" x1="981.386" y1="453.917" x2="1042.386" y2="453.917"/>
	
		<line fill="none" stroke="#159BBA" stroke-width="17" stroke-linecap="round" stroke-miterlimit="28" x1="982.386" y1="360.917" x2="1031.386" y2="360.917"/>
	
		<line fill="none" stroke="#159BBA" stroke-width="17" stroke-linecap="round" stroke-miterlimit="28" x1="981.386" y1="267.917" x2="1042.386" y2="267.917"/>
	
		<line fill="none" stroke="#159BBA" stroke-width="17" stroke-linecap="round" stroke-miterlimit="28" x1="948.886" y1="277" x2="948.886" y2="445"/>
</g>
<g id="Ga">
	<g id="tube_21_">
		<path fill="#01B900" d="M822.886,453c-4.159,0-8.249-0.293-12.258-0.848c0.464,1.24-0.105,2.809-1.742,2.598
			c-5.278-0.679-10.191-1.059-15.009-3.523c-2.32-1.187-4.587-3.209-7.172-3.772c-2.187-0.476-4.119-0.885-6.078-1.978
			c-1.419-0.792-1.142-2.455-0.18-3.263c-27.713-15.098-46.561-44.496-46.561-78.214c0-49.075,39.925-89,89-89
			c7.383,0,14.556,0.91,21.419,2.612c-0.296-1.181,0.304-2.534,1.831-2.362c6.34,0.712,11.618,3.784,17.259,6.523
			c1.44,0.699,1.203,2.292,0.265,3.132c14.845,7.684,27.255,19.432,35.771,33.752c3.595-1.785,7.238-3.477,10.694-5.499
			C892.588,283.182,860.052,263,822.886,263c-55.691,0-101,45.309-101,101s45.309,101,101,101c47.662,0,87.715-33.188,98.274-77.667
			h-12.384C898.499,425.126,863.889,453,822.886,453z"/>
	</g>
</g>
<g id="subG">
	<g id="end_7_">
		<g>
			<path fill="#B79F22" d="M912.037,382.344c-8.615,42.1-46.108,72.656-89.151,72.656c-50.178,0-91-40.822-91-91s40.822-91,91-91
				c32.385,0,62.59,17.435,78.826,45.499c1.422,2.459,2.589,4.859,2.589,4.859c0.721,1.484,2.66,2.748,4.309,2.808
				c0,0,1.223-0.405,2.216-1.673c0.992-1.268,1.21-3.518,0.484-5c0,0-1.223-2.494-2.673-4.999
				C890.975,283.965,858.118,265,822.886,265c-54.589,0-99,44.411-99,99s44.411,99,99,99c46.826,0,87.615-33.246,96.989-79.053
				c0.77-3.764,1.254-7.472,1.254-7.472c0.214-1.636-0.962-2.975-2.612-2.975h-2.03c-1.65,0-3.188,1.337-3.417,2.971
				C913.07,376.471,912.7,379.106,912.037,382.344z"/>
		</g>
	</g>
	
		<line fill="none" stroke="#B79F16" stroke-width="11" stroke-linecap="round" stroke-miterlimit="28" x1="825.386" y1="361.083" x2="911.386" y2="361.083"/>
</g>
<g id="G_1_">
	<g id="tube_20_">
		<g>
			<path fill="#439BBA" d="M822.886,261.5c-56.519,0-102.5,45.981-102.5,102.5c0,39.691,22.677,74.183,55.755,91.205l5.501-14.055
				c-27.507-14.764-46.256-43.807-46.256-77.151c0-48.248,39.252-87.5,87.5-87.5c7.591,0,14.958,0.973,21.986,2.799l6.047-13.902
				C842.006,262.859,832.602,261.5,822.886,261.5z"/>
		</g>
		<path fill="#439BBA" d="M907.71,385.5c-9.607,37.886-43.993,66-84.824,66c-4.684,0-9.282-0.374-13.768-1.087l-5.577,14.248
			c6.267,1.202,12.733,1.839,19.345,1.839c49.146,0,90.317-34.77,100.224-81H907.71z"/>
		<path fill="#439BBA" d="M911.189,312.035c-11.803-20.535-23.277-30.575-44.35-40.62l-5.985,13.76
			c15.562,7.527,28.573,19.529,37.348,34.325L911.189,312.035z"/>
	</g>
	
		<line fill="none" stroke="#159BBA" stroke-width="17" stroke-linecap="round" stroke-miterlimit="28" x1="839.386" y1="360.917" x2="898.386" y2="360.917"/>
</g>
<g id="subN2">
	
		<line fill="none" stroke="#B79F16" stroke-width="11" stroke-linecap="round" stroke-miterlimit="28" x1="561.886" y1="296" x2="561.886" y2="462"/>
	
		<polyline fill="none" stroke="#B79F16" stroke-width="11" stroke-linecap="round" stroke-linejoin="round" stroke-miterlimit="28" points="
		564.257,268.294 695.328,444.528 695.328,267.002 	"/>
</g>
<g id="N2_1_">
	
		<line fill="none" stroke="#159BBA" stroke-width="17" stroke-linecap="round" stroke-miterlimit="28" x1="562.22" y1="309.897" x2="562.22" y2="447.897"/>
	
		<polyline fill="none" stroke="#159BBA" stroke-width="17" stroke-linecap="round" stroke-linejoin="round" stroke-miterlimit="28" points="
		573.257,280.294 696.328,448.528 696.328,280.002 	"/>
</g>
<g id="subU">
	<path fill="#B79F22" d="M397.357,274.667h-10.941v-8.515c0-2.448,1.984-4.432,4.432-4.432h2.171c2.396,0,4.338,1.942,4.338,4.338
		V274.667z"/>
	<path fill="#B79F22" d="M533.357,274.667h-10.941v-8.515c0-2.448,1.984-4.432,4.432-4.432h2.171c2.396,0,4.338,1.942,4.338,4.338
		V274.667z"/>
</g>
<g id="U">
	<path fill="#439BBA" d="M533.357,274.526v-0.011c-0.1-0.093-0.194-0.192-0.285-0.293c-0.063-0.04-0.131-0.075-0.194-0.116
		c-0.267-0.13-0.516-0.28-0.742-0.454v0.01c-1.252-0.735-2.701-1.163-4.25-1.163c-4.687,0-8.5,3.854-8.5,8.593V425.8
		c0,12.475-7.472,23.014-16.315,23.014h-86.369c-8.844,0-16.315-10.539-16.315-23.014V281.093c0-2.588-1.144-4.905-2.94-6.481
		c-0.189-0.124-0.367-0.259-0.53-0.407c-0.289-0.16-0.562-0.338-0.799-0.551c-1.248-0.728-2.69-1.153-4.231-1.153
		c-4.687,0-8.5,3.854-8.5,8.593V425.8c0,22.166,14.945,40.2,33.315,40.2h86.369c18.37,0,33.315-18.034,33.315-40.2V281.093
		C536.386,278.46,535.207,276.103,533.357,274.526z"/>
</g>
<g id="O1a">
	<g id="tube_18_">
		<path id="tube_22_" fill="#439BBA" d="M262.886,263c-55.691,0-101,45.309-101,101s45.309,101,101,101s101-45.309,101-101
			S318.578,263,262.886,263z M262.886,453c-4.159,0-8.249-0.293-12.257-0.848c0.464,1.24-0.105,2.809-1.742,2.598
			c-5.278-0.679-10.191-1.059-15.009-3.523c-2.32-1.187-4.587-3.209-7.172-3.772c-2.187-0.476-4.119-0.885-6.078-1.978
			c-1.419-0.792-1.142-2.455-0.18-3.263c-27.713-15.098-46.561-44.496-46.561-78.214c0-49.075,39.925-89,89-89
			c7.383,0,14.556,0.91,21.419,2.612c-0.296-1.181,0.304-2.534,1.831-2.362c6.34,0.712,11.618,3.784,17.259,6.523
			c1.44,0.699,1.203,2.292,0.265,3.132c28.619,14.814,48.226,44.706,48.226,79.095C351.886,413.075,311.961,453,262.886,453z"/>
	</g>
</g>
<g id="subO1">
	<circle id="end_2_" fill="none" stroke="#B70030" stroke-width="8" stroke-miterlimit="10" cx="262.886" cy="364" r="95"/>
</g>
<g id="O1_1_">
	<g id="O_4_">
		<path id="tube_5_" fill="#439BBA" d="M221.642,441.151c-27.507-14.764-46.256-43.807-46.256-77.151
			c0-48.248,39.252-87.5,87.5-87.5c7.591,0,14.958,0.973,21.986,2.799l6.047-13.902c-8.913-2.537-18.317-3.896-28.033-3.896
			c-56.519,0-102.5,45.981-102.5,102.5c0,39.691,22.677,74.183,55.755,91.205L221.642,441.151z"/>
		<path id="tube_1_" fill="#439BBA" d="M306.84,271.415l-5.985,13.76c29.284,14.163,49.531,44.174,49.531,78.825
			c0,48.248-39.252,87.5-87.5,87.5c-4.684,0-9.282-0.374-13.768-1.087l-5.577,14.248c6.267,1.202,12.733,1.839,19.345,1.839
			c56.519,0,102.5-45.981,102.5-102.5C365.386,323.203,341.425,287.9,306.84,271.415z"/>
	</g>
</g>
<g id="subL">
	
		<line fill="none" stroke="#B79F16" stroke-width="11" stroke-linecap="round" stroke-miterlimit="28" x1="52.72" y1="266.5" x2="52.72" y2="461.5"/>
	
		<line fill="none" stroke="#B79F16" stroke-width="11" stroke-linecap="round" stroke-miterlimit="28" x1="73.886" y1="458.083" x2="161.886" y2="458.083"/>
</g>
<g id="L_1_">
	
		<line fill="none" stroke="#159BBA" stroke-width="17" stroke-linecap="round" stroke-miterlimit="28" x1="52.886" y1="280" x2="52.886" y2="448"/>
	
		<line fill="none" stroke="#159BBA" stroke-width="17" stroke-linecap="round" stroke-miterlimit="28" x1="87.386" y1="457.917" x2="148.386" y2="457.917"/>
</g>
<g id="subN1">
	
		<line fill="none" stroke="#B79F16" stroke-width="11" stroke-linecap="round" stroke-miterlimit="28" x1="661.328" y1="204.002" x2="661.328" y2="38.002"/>
	
		<polyline fill="none" stroke="#B79F16" stroke-width="11" stroke-linecap="round" stroke-linejoin="round" stroke-miterlimit="28" points="
		658.958,231.708 527.886,55.473 527.886,233 	"/>
</g>
<g id="N1">
	
		<line fill="none" stroke="#159BBA" stroke-width="17" stroke-linecap="round" stroke-miterlimit="28" x1="661.995" y1="190.105" x2="661.995" y2="52.105"/>
	
		<polyline fill="none" stroke="#159BBA" stroke-width="17" stroke-linecap="round" stroke-linejoin="round" stroke-miterlimit="28" points="
		650.958,219.708 527.886,51.473 527.886,220 	"/>
</g>
<g id="Oa">
	<g id="tube_9_">
		<path id="tube_10_" fill="#439BBA" d="M402.886,31c-55.691,0-101,45.309-101,101s45.309,101,101,101s101-45.309,101-101
			S458.578,31,402.886,31z M402.886,221c-4.159,0-8.249-0.293-12.258-0.848c0.464,1.24-0.105,2.809-1.742,2.598
			c-5.278-0.679-10.191-1.059-15.009-3.523c-2.32-1.187-4.587-3.209-7.172-3.772c-2.187-0.476-4.119-0.885-6.078-1.978
			c-1.419-0.792-1.142-2.455-0.18-3.263c-27.713-15.098-46.561-44.496-46.561-78.214c0-49.075,39.925-89,89-89
			c7.383,0,14.556,0.91,21.419,2.612c-0.296-1.181,0.304-2.534,1.831-2.362c6.34,0.712,11.618,3.784,17.259,6.523
			c1.44,0.699,1.203,2.292,0.265,3.132C472.28,67.719,491.886,97.612,491.886,132C491.886,181.075,451.961,221,402.886,221z"/>
	</g>
</g>
<g id="subO">
	<circle fill="none" stroke="#B70030" stroke-width="8" stroke-miterlimit="10" cx="402.886" cy="132" r="95"/>
</g>
<g id="O_2_">
	<g id="O_5_">
		<path id="tube_8_" fill="#439BBA" d="M361.642,209.151c-27.507-14.764-46.256-43.807-46.256-77.151
			c0-48.248,39.252-87.5,87.5-87.5c7.591,0,14.958,0.973,21.986,2.799l6.047-13.902c-8.913-2.537-18.317-3.896-28.033-3.896
			c-56.519,0-102.5,45.981-102.5,102.5c0,39.691,22.677,74.183,55.755,91.205L361.642,209.151z"/>
		<path id="tube_7_" fill="#439BBA" d="M446.84,39.415l-5.985,13.76c29.284,14.163,49.531,44.174,49.531,78.825
			c0,48.248-39.252,87.5-87.5,87.5c-4.684,0-9.282-0.374-13.768-1.087l-5.577,14.248c6.267,1.202,12.733,1.839,19.345,1.839
			c56.519,0,102.5-45.981,102.5-102.5C505.386,91.203,481.425,55.9,446.84,39.415z"/>
	</g>
</g>
<g id="subE">
	
		<line fill="none" stroke="#B79F16" stroke-width="11" stroke-linecap="round" stroke-miterlimit="28" x1="208.886" y1="221.083" x2="296.886" y2="221.083"/>
	
		<line fill="none" stroke="#B79F16" stroke-width="11" stroke-linecap="round" stroke-miterlimit="28" x1="209.386" y1="131.083" x2="286.386" y2="131.083"/>
	
		<line fill="none" stroke="#B79F16" stroke-width="11" stroke-linecap="round" stroke-miterlimit="28" x1="208.886" y1="40.083" x2="296.886" y2="40.083"/>
</g>
<g id="E_1_">
	
		<line fill="none" stroke="#159BBA" stroke-width="17" stroke-linecap="round" stroke-miterlimit="28" x1="222.386" y1="220.917" x2="283.386" y2="220.917"/>
	
		<line fill="none" stroke="#159BBA" stroke-width="17" stroke-linecap="round" stroke-miterlimit="28" x1="223.386" y1="130.917" x2="272.386" y2="130.917"/>
	
		<line fill="none" stroke="#159BBA" stroke-width="17" stroke-linecap="round" stroke-miterlimit="28" x1="222.386" y1="39.917" x2="283.386" y2="39.917"/>
</g>
<g id="subN">
	
		<line fill="none" stroke="#B79F16" stroke-width="11" stroke-linecap="round" stroke-miterlimit="28" x1="52.886" y1="67" x2="52.886" y2="233"/>
	
		<polyline fill="none" stroke="#B79F16" stroke-width="11" stroke-linecap="round" stroke-linejoin="round" stroke-miterlimit="28" points="
		55.257,39.294 186.328,215.528 186.328,38.002 	"/>
</g>
<g id="N_1_">
	
		<line fill="none" stroke="#159BBA" stroke-width="17" stroke-linecap="round" stroke-miterlimit="28" x1="53.22" y1="80.897" x2="53.22" y2="218.897"/>
	
		<polyline fill="none" stroke="#159BBA" stroke-width="17" stroke-linecap="round" stroke-linejoin="round" stroke-miterlimit="28" points="
		64.257,51.294 187.328,219.528 187.328,51.002 	"/>
</g>
</svg>
