<?xml version="1.0" encoding="utf-8"?>
<!-- Generator: Adobe Illustrator 18.0.0, SVG Export Plug-In . SVG Version: 6.00 Build 0)  -->
<!DOCTYPE svg PUBLIC "-//W3C//DTD SVG 1.1//EN" "http://www.w3.org/Graphics/SVG/1.1/DTD/svg11.dtd">
<svg version="1.1" xmlns="http://www.w3.org/2000/svg" xmlns:xlink="http://www.w3.org/1999/xlink" x="0px" y="0px"
	 viewBox="0 0 1097.945 501.079" enable-background="new 0 0 1097.945 501.079" xml:space="preserve">
<g id="E1sub">
	
		<line fill="none" stroke="#B79F16" stroke-width="11" stroke-linecap="round" stroke-miterlimit="28" x1="967.886" y1="454.083" x2="1055.886" y2="454.083"/>
	
		<line fill="none" stroke="#B79F16" stroke-width="11" stroke-linecap="round" stroke-miterlimit="28" x1="968.386" y1="361.083" x2="1045.386" y2="361.083"/>
	
		<line fill="none" stroke="#B79F16" stroke-width="11" stroke-linecap="round" stroke-miterlimit="28" x1="967.886" y1="268.083" x2="1055.886" y2="268.083"/>
	
		<line fill="none" stroke="#B79F16" stroke-width="11" stroke-linecap="round" stroke-miterlimit="28" x1="948.72" y1="263.5" x2="948.72" y2="458.5"/>
</g>
<g id="E1">
	
		<line fill="none" stroke="#159BBA" stroke-width="17" stroke-linecap="round" stroke-miterlimit="28" x1="981.386" y1="453.917" x2="1042.386" y2="453.917"/>
	
		<line fill="none" stroke="#159BBA" stroke-width="17" stroke-linecap="round" stroke-miterlimit="28" x1="982.386" y1="360.917" x2="1031.386" y2="360.917"/>
	
		<line fill="none" stroke="#159BBA" stroke-width="17" stroke-linecap="round" stroke-miterlimit="28" x1="981.386" y1="267.917" x2="1042.386" y2="267.917"/>
	
		<line fill="none" stroke="#159BBA" stroke-width="17" stroke-linecap="round" stroke-miterlimit="28" x1="948.886" y1="277" x2="948.886" y2="445"/>
</g>
<g id="GSSub">
	<path fill="none" stroke="#B79F16" stroke-width="11" stroke-linecap="round" stroke-miterlimit="28" d="M916.432,373.021
		c-4.699,48.077-45.235,85.646-94.545,85.646c-52.467,0-95-42.533-95-95s42.533-95,95-95c39.206,0,72.865,23.75,87.375,57.648"/>
	<path fill="none" stroke="#B79F16" stroke-width="11" stroke-linecap="round" stroke-miterlimit="28" d="M916.886,363.667"/>
	
		<line fill="none" stroke="#B79F16" stroke-width="11" stroke-linecap="round" stroke-miterlimit="28" x1="825.386" y1="361.083" x2="911.386" y2="361.083"/>
</g>
<g id="Gs">
	<path fill="none" stroke="#159BBA" stroke-width="17" stroke-linecap="round" stroke-miterlimit="28" d="M761.458,436.973
		c-21.114-17.424-34.571-43.794-34.571-73.307c0-52.467,42.533-95,95-95c5.946,0,11.765,0.546,17.409,1.592"/>
	<path fill="none" stroke="#159BBA" stroke-width="17" stroke-linecap="round" stroke-miterlimit="28" d="M914.32,385.691
		c-9.934,41.847-47.548,72.976-92.434,72.976c-9.407,0-18.495-1.367-27.075-3.914"/>
	<path fill="none" stroke="#159BBA" stroke-width="17" stroke-linecap="round" stroke-miterlimit="28" d="M916.886,363.667"/>
	<path fill="none" stroke="#159BBA" stroke-width="17" stroke-linecap="round" stroke-miterlimit="28" d="M869.254,281.3
		c14.133,8.145,25.974,19.824,34.314,33.829"/>
	
		<line fill="none" stroke="#159BBA" stroke-width="17" stroke-linecap="round" stroke-miterlimit="28" x1="839.386" y1="360.917" x2="898.386" y2="360.917"/>
</g>
<g id="N2sub">
	
		<line fill="none" stroke="#B79F16" stroke-width="11" stroke-linecap="round" stroke-miterlimit="28" x1="561.886" y1="296" x2="561.886" y2="462"/>
	
		<polyline fill="none" stroke="#B79F16" stroke-width="11" stroke-linecap="round" stroke-linejoin="round" stroke-miterlimit="28" points="
		564.257,268.294 695.328,444.528 695.328,267.002 	"/>
</g>
<g id="N2_1_">
	
		<line fill="none" stroke="#159BBA" stroke-width="17" stroke-linecap="round" stroke-miterlimit="28" x1="562.22" y1="309.897" x2="562.22" y2="447.897"/>
	
		<polyline fill="none" stroke="#159BBA" stroke-width="17" stroke-linecap="round" stroke-linejoin="round" stroke-miterlimit="28" points="
		573.257,280.294 696.328,448.528 696.328,280.002 	"/>
</g>
<g id="UsSub">
	
		<line fill="none" stroke="#B79F16" stroke-width="11" stroke-linecap="round" stroke-miterlimit="28" x1="527.886" y1="268.5" x2="527.886" y2="431"/>
	
		<line fill="none" stroke="#B79F16" stroke-width="11" stroke-linecap="round" stroke-miterlimit="28" x1="391.886" y1="267.5" x2="391.886" y2="430"/>
</g>
<g id="Us">
	<path fill="none" stroke="#439BBA" stroke-width="17" stroke-linecap="round" stroke-miterlimit="10" d="M391.886,279.25v145.657
		c0,8.387,3.415,16.43,9.493,22.36h0c7.208,7.032,16.983,10.983,27.177,10.983h58.441c11.134,0,21.812-4.315,29.686-11.997l0,0
		c7.414-7.233,11.579-17.044,11.579-27.273V280.439"/>
</g>
<g id="Lsub">
	
		<line fill="none" stroke="#B79F16" stroke-width="11" stroke-linecap="round" stroke-miterlimit="28" x1="52.72" y1="266.5" x2="52.72" y2="461.5"/>
	
		<line fill="none" stroke="#B79F16" stroke-width="11" stroke-linecap="round" stroke-miterlimit="28" x1="73.886" y1="458.083" x2="161.886" y2="458.083"/>
</g>
<g id="L_1_">
	
		<line fill="none" stroke="#159BBA" stroke-width="17" stroke-linecap="round" stroke-miterlimit="28" x1="52.886" y1="280" x2="52.886" y2="448"/>
	
		<line fill="none" stroke="#159BBA" stroke-width="17" stroke-linecap="round" stroke-miterlimit="28" x1="87.386" y1="457.917" x2="148.386" y2="457.917"/>
</g>
<g id="N1sub">
	
		<line fill="none" stroke="#B79F16" stroke-width="11" stroke-linecap="round" stroke-miterlimit="28" x1="661.328" y1="204.002" x2="661.328" y2="38.002"/>
	
		<polyline fill="none" stroke="#B79F16" stroke-width="11" stroke-linecap="round" stroke-linejoin="round" stroke-miterlimit="28" points="
		658.958,231.708 527.886,55.473 527.886,233 	"/>
</g>
<g id="N1">
	
		<line fill="none" stroke="#159BBA" stroke-width="17" stroke-linecap="round" stroke-miterlimit="28" x1="661.995" y1="190.105" x2="661.995" y2="52.105"/>
	
		<polyline fill="none" stroke="#159BBA" stroke-width="17" stroke-linecap="round" stroke-linejoin="round" stroke-miterlimit="28" points="
		650.958,219.708 527.886,51.473 527.886,220 	"/>
</g>
<g id="Esub">
	
		<line fill="none" stroke="#B79F16" stroke-width="11" stroke-linecap="round" stroke-miterlimit="28" x1="208.886" y1="221.083" x2="296.886" y2="221.083"/>
	
		<line fill="none" stroke="#B79F16" stroke-width="11" stroke-linecap="round" stroke-miterlimit="28" x1="209.386" y1="131.083" x2="286.386" y2="131.083"/>
	
		<line fill="none" stroke="#B79F16" stroke-width="11" stroke-linecap="round" stroke-miterlimit="28" x1="208.886" y1="40.083" x2="296.886" y2="40.083"/>
</g>
<g id="E_1_">
	
		<line fill="none" stroke="#159BBA" stroke-width="17" stroke-linecap="round" stroke-miterlimit="28" x1="222.386" y1="220.917" x2="283.386" y2="220.917"/>
	
		<line fill="none" stroke="#159BBA" stroke-width="17" stroke-linecap="round" stroke-miterlimit="28" x1="223.386" y1="130.917" x2="272.386" y2="130.917"/>
	
		<line fill="none" stroke="#159BBA" stroke-width="17" stroke-linecap="round" stroke-miterlimit="28" x1="222.386" y1="39.917" x2="283.386" y2="39.917"/>
</g>
<g id="Nsub">
	
		<line fill="none" stroke="#B79F16" stroke-width="11" stroke-linecap="round" stroke-miterlimit="28" x1="52.886" y1="67" x2="52.886" y2="233"/>
	
		<polyline fill="none" stroke="#B79F16" stroke-width="11" stroke-linecap="round" stroke-linejoin="round" stroke-miterlimit="28" points="
		55.257,39.294 186.328,215.528 186.328,38.002 	"/>
</g>
<g id="N_1_">
	
		<line fill="none" stroke="#159BBA" stroke-width="17" stroke-linecap="round" stroke-miterlimit="28" x1="53.22" y1="80.897" x2="53.22" y2="218.897"/>
	
		<polyline fill="none" stroke="#159BBA" stroke-width="17" stroke-linecap="round" stroke-linejoin="round" stroke-miterlimit="28" points="
		64.257,51.294 187.328,219.528 187.328,51.002 	"/>
</g>
<g id="Os1Sub">
	
		<circle fill="none" stroke="#B79F16" stroke-width="11" stroke-linecap="round" stroke-miterlimit="28" cx="401.886" cy="127.667" r="95"/>
</g>
<g id="Os1">
	<path fill="none" stroke="#159BBA" stroke-width="17" stroke-linecap="round" stroke-miterlimit="28" d="M342.457,201.973
		c-21.113-17.424-34.571-43.794-34.571-73.307c0-52.467,42.533-95,95-95c5.946,0,11.765,0.546,17.409,1.592"/>
	<path fill="none" stroke="#159BBA" stroke-width="17" stroke-linecap="round" stroke-miterlimit="28" d="M450.254,46.3
		c28.469,16.407,47.632,47.149,47.632,82.367c0,52.467-42.533,95-95,95c-9.407,0-18.495-1.367-27.075-3.914"/>
</g>
<g id="OsSub">
	
		<circle fill="none" stroke="#B79F16" stroke-width="11" stroke-linecap="round" stroke-miterlimit="28" cx="266.886" cy="364.667" r="95"/>
</g>
<g id="Os">
	<path fill="none" stroke="#159BBA" stroke-width="17" stroke-linecap="round" stroke-miterlimit="28" d="M204.457,436.973
		c-21.113-17.424-34.571-43.794-34.571-73.307c0-52.467,42.533-95,95-95c5.946,0,11.765,0.546,17.409,1.592"/>
	<path fill="none" stroke="#159BBA" stroke-width="17" stroke-linecap="round" stroke-miterlimit="28" d="M312.254,281.3
		c28.469,16.407,47.632,47.149,47.632,82.367c0,52.467-42.533,95-95,95c-9.407,0-18.495-1.367-27.075-3.914"/>
</g>
</svg>
