<?xml version="1.0" encoding="utf-8"?>
<!-- Generator: Adobe Illustrator 18.0.0, SVG Export Plug-In . SVG Version: 6.00 Build 0)  -->
<!DOCTYPE svg PUBLIC "-//W3C//DTD SVG 1.1//EN" "http://www.w3.org/Graphics/SVG/1.1/DTD/svg11.dtd">
<svg version="1.1" xmlns="http://www.w3.org/2000/svg" xmlns:xlink="http://www.w3.org/1999/xlink" x="0px" y="0px"
	 viewBox="0 0 960 560" enable-background="new 0 0 960 560" xml:space="preserve">
<g id="N2">
	<path id="end_14_" fill="#FF173D" d="M672.565,224.791l8.867-6.409l4.988,6.901c1.434,1.984,0.988,4.754-0.996,6.188l-1.759,1.271
		c-1.942,1.403-4.654,0.967-6.057-0.975L672.565,224.791z"/>
	<path id="end_13_" fill="#FF173D" d="M541.5,217.237h10.941v8.515c0,2.448-1.984,4.432-4.432,4.432h-2.171
		c-2.396,0-4.338-1.942-4.338-4.338V217.237z"/>
	<g id="tube_11_">
		<path fill="#01B900" d="M687.147,228.799c0.252-1.183,0.037-2.459-0.727-3.517l-4.042-5.592c-0.094,0.621-0.259,1.231-0.505,1.812
			L687.147,228.799z"/>
		<path fill="#01B900" d="M673.356,225.885l4.252,5.882c0.756,1.046,1.894,1.639,3.085,1.758l-5.404-7.477
			c-0.104,0.004-0.207,0.022-0.311,0.022C674.43,226.071,673.888,226.002,673.356,225.885z"/>
		<path fill="#01B900" d="M542.72,224.529v-7.292h-1.22v8.608c0,2.396,1.942,4.338,4.338,4.338h2.171
			c1.977,0,3.631-1.303,4.203-3.09c-0.072,0.038-0.151,0.068-0.226,0.103C549.681,230.797,542.72,229.91,542.72,224.529z"/>
		<path fill="#1EC11A" d="M681.873,221.503c0.246-0.581,0.41-1.191,0.505-1.812c0.267-1.758-0.079-3.615-1.128-5.221L573.981,50.217
			c-9.427-14.433-17.555-15.631-22.707-14.098c-9.343,2.781-11.304,14.706-11.304,24.22v151.065c0,4.142,3.357,7.5,7.5,7.5
			s7.5-3.358,7.5-7.5V60.339c0-4.275,0.464-7.053,0.927-8.685c1.28,1.112,3.188,3.185,5.525,6.765l107.269,164.252
			c1.117,1.71,2.815,2.806,4.664,3.214c0.532,0.117,1.075,0.186,1.622,0.186c0.104,0,0.207-0.018,0.311-0.022
			c1.304-0.054,2.611-0.434,3.783-1.2C680.366,224.004,681.312,222.827,681.873,221.503z"/>
	</g>
	<path id="end_12_" fill="#FF173D" d="M686.441,37.184H675.5v-8.515c0-2.448,1.984-4.432,4.432-4.432h2.171
		c2.396,0,4.338,1.942,4.338,4.338V37.184z"/>
	<path id="end_11_" fill="#FF173D" d="M675.5,187.237h10.941v8.515c0,2.448-1.984,4.432-4.432,4.432h-2.171
		c-2.396,0-4.338-1.942-4.338-4.338V187.237z"/>
	<path id="tube_10_" fill="#01B900" d="M686.441,36.202v-7.626c0-1.291-0.575-2.438-1.47-3.232v10.26
		c-0.481-0.125-0.982-0.199-1.5-0.199h-5c-0.518,0-1.019,0.074-1.5,0.199V25.393c-0.897,0.811-1.47,1.972-1.47,3.276v7.533
		c-1.805,1.038-3.03,2.982-3.03,5.202v141c0,2.22,1.225,4.165,3.03,5.202v8.24c0,2.396,1.942,4.338,4.338,4.338h2.171
		c1.977,0,3.631-1.303,4.203-3.09c-0.072,0.038-0.151,0.068-0.226,0.103c-2.305,3.6-9.265,2.714-9.265-2.668v-6.388
		c0.554,0.17,1.142,0.263,1.75,0.263h5c3.3,0,6-2.7,6-6v-141C689.47,39.183,688.246,37.239,686.441,36.202z"/>
</g>
<g id="O">
	<g id="tube_8_">
		<path id="tube_9_" fill="#01B900" d="M423,31c-55.691,0-101,45.309-101,101s45.309,101,101,101s101-45.309,101-101
			S478.691,31,423,31z M423,221c-4.159,0-8.249-0.293-12.258-0.848c0.464,1.24-0.105,2.809-1.742,2.598
			c-5.278-0.679-10.191-1.059-15.009-3.523c-2.32-1.187-4.587-3.209-7.172-3.772c-2.187-0.476-4.119-0.885-6.078-1.978
			c-1.419-0.792-1.142-2.455-0.18-3.263C352.848,195.116,334,165.718,334,132c0-49.075,39.925-89,89-89
			c7.383,0,14.556,0.91,21.419,2.612c-0.296-1.181,0.304-2.534,1.831-2.362c6.34,0.712,11.618,3.784,17.259,6.523
			c1.44,0.699,1.203,2.292,0.265,3.132C492.394,67.719,512,97.612,512,132C512,181.075,472.075,221,423,221z"/>
	</g>
	<circle id="end_10_" fill="none" stroke="#B70030" stroke-width="8" stroke-miterlimit="10" cx="423" cy="132" r="95"/>
	<g id="tube_5_">
		<path id="tube_7_" fill="#01B900" d="M381.756,209.151C354.249,194.386,335.5,165.343,335.5,132c0-48.248,39.252-87.5,87.5-87.5
			c7.591,0,14.958,0.973,21.986,2.799l6.047-13.902C442.12,30.859,432.716,29.5,423,29.5c-56.519,0-102.5,45.981-102.5,102.5
			c0,39.691,22.677,74.183,55.755,91.205L381.756,209.151z"/>
		<path id="tube_6_" fill="#01B900" d="M466.953,39.415l-5.985,13.76C490.253,67.338,510.5,97.349,510.5,132
			c0,48.248-39.252,87.5-87.5,87.5c-4.684,0-9.282-0.374-13.768-1.087l-5.577,14.248c6.267,1.202,12.733,1.839,19.345,1.839
			c56.519,0,102.5-45.981,102.5-102.5C525.5,91.203,501.539,55.9,466.953,39.415z"/>
	</g>
</g>
<g id="G">
	<g id="tube_21_">
		<path fill="#01B900" d="M340,453c-4.159,0-8.249-0.293-12.258-0.848c0.464,1.24-0.105,2.809-1.742,2.598
			c-5.278-0.679-10.191-1.059-15.009-3.523c-2.32-1.187-4.587-3.209-7.172-3.772c-2.187-0.476-4.119-0.885-6.078-1.978
			c-1.419-0.792-1.142-2.455-0.18-3.263C269.848,427.116,251,397.718,251,364c0-49.075,39.925-89,89-89
			c7.383,0,14.556,0.91,21.419,2.612c-0.296-1.181,0.304-2.534,1.831-2.362c6.34,0.712,11.618,3.784,17.259,6.523
			c1.44,0.699,1.203,2.292,0.265,3.132c14.845,7.684,27.255,19.432,35.771,33.752c3.595-1.785,7.238-3.477,10.694-5.499
			C409.702,283.182,377.166,263,340,263c-55.691,0-101,45.309-101,101s45.309,101,101,101c47.662,0,87.715-33.188,98.274-77.667
			H425.89C415.612,425.126,381.003,453,340,453z"/>
	</g>
	<g id="end_31_">
		<g>
			<path fill="#B70030" d="M429.151,382.344C420.536,424.443,383.043,455,340,455c-50.178,0-91-40.822-91-91s40.822-91,91-91
				c32.385,0,62.59,17.435,78.826,45.499c1.422,2.459,2.589,4.859,2.589,4.859c0.721,1.484,2.66,2.748,4.309,2.808
				c0,0,1.223-0.405,2.216-1.673c0.992-1.268,1.21-3.518,0.484-5c0,0-1.223-2.494-2.673-4.999C408.089,283.965,375.231,265,340,265
				c-54.589,0-99,44.411-99,99s44.411,99,99,99c46.826,0,87.615-33.246,96.989-79.053c0.77-3.764,1.254-7.472,1.254-7.472
				c0.214-1.636-0.962-2.975-2.612-2.975h-2.03c-1.65,0-3.188,1.337-3.417,2.971C430.184,376.471,429.814,379.106,429.151,382.344z"
				/>
		</g>
	</g>
	<g id="tube_20_">
		<g>
			<path fill="#01B900" d="M340,261.5c-56.519,0-102.5,45.981-102.5,102.5c0,39.691,22.677,74.183,55.755,91.205l5.501-14.055
				C271.249,426.386,252.5,397.343,252.5,364c0-48.248,39.252-87.5,87.5-87.5c7.591,0,14.958,0.973,21.986,2.799l6.047-13.902
				C359.12,262.859,349.716,261.5,340,261.5z"/>
		</g>
		<path fill="#01B900" d="M424.824,385.5c-9.607,37.886-43.993,66-84.824,66c-4.684,0-9.282-0.374-13.768-1.087l-5.577,14.248
			c6.267,1.202,12.733,1.839,19.345,1.839c49.146,0,90.317-34.77,100.224-81H424.824z"/>
		<path fill="#01B900" d="M428.303,312.035c-11.803-20.535-23.277-30.575-44.35-40.62l-5.985,13.76
			c15.562,7.527,28.573,19.529,37.348,34.325L428.303,312.035z"/>
	</g>
	<path id="end_30_" fill="#FF173D" d="M429.027,369.97V359.03h8.515c2.448,0,4.432,1.984,4.432,4.432v2.171
		c0,2.396-1.942,4.338-4.338,4.338H429.027z"/>
	<path id="end_29_" fill="#FF173D" d="M355.973,359.03v10.941h-8.515c-2.448,0-4.432-1.984-4.432-4.432v-2.171
		c0-2.396,1.942-4.338,4.338-4.338H355.973z"/>
	<path id="tube_19_" fill="#01B900" d="M440.867,368.5h-10.566c0.125-0.481,0.199-0.982,0.199-1.5v-5c0-0.518-0.074-1.019-0.199-1.5
		h10.516c-0.811-0.897-1.972-1.47-3.276-1.47h-7.839c-1.038-1.805-2.982-3.03-5.202-3.03h-65c-2.22,0-4.165,1.225-5.202,3.03h-6.933
		c-2.396,0-4.338,1.942-4.338,4.338v2.171c0,1.977,1.303,3.631,3.09,4.203c-0.038-0.072-0.068-0.151-0.103-0.226
		c-3.6-2.305-2.714-9.265,2.668-9.265h5.082c-0.17,0.554-0.263,1.142-0.263,1.75v5c0,3.3,2.7,6,6,6h65
		c2.22,0,4.165-1.225,5.202-3.03h7.933C438.926,369.97,440.073,369.395,440.867,368.5z"/>
</g>
<g id="U">
	<path id="end_28_" fill="#FF173D" d="M553.47,278.667H542.53v-8.515c0-2.448,1.984-4.432,4.432-4.432h2.171
		c2.396,0,4.338,1.942,4.338,4.338V278.667z"/>
	<path id="end_27_" fill="#FF173D" d="M689.47,278.667H678.53v-8.515c0-2.448,1.984-4.432,4.432-4.432h2.171
		c2.396,0,4.338,1.942,4.338,4.338V278.667z"/>
	<path id="tube_18_" fill="#01B900" d="M689.47,276.526v-6.468c0-2.396-1.942-4.338-4.338-4.338h-2.171
		c-1.977,0-3.631,1.303-4.203,3.09c0.072-0.038,0.151-0.068,0.226-0.103c2.305-3.6,9.265-2.714,9.265,2.668v4.288
		c-1.252-0.735-2.701-1.163-4.25-1.163c-4.687,0-8.5,3.854-8.5,8.593V427.8c0,12.475-7.472,23.014-16.315,23.014h-86.369
		c-8.844,0-16.315-10.539-16.315-23.014V283.093c0-2.633-1.18-4.989-3.03-6.567v-6.468c0-2.396-1.942-4.338-4.338-4.338h-2.171
		c-1.977,0-3.631,1.303-4.203,3.09c0.072-0.038,0.151-0.068,0.226-0.103c2.305-3.6,9.265-2.714,9.265,2.668v4.288
		c-1.252-0.735-2.701-1.163-4.25-1.163c-4.687,0-8.5,3.854-8.5,8.593V427.8c0,22.166,14.945,40.2,33.315,40.2h86.369
		c18.37,0,33.315-18.034,33.315-40.2V283.093C692.5,280.46,691.32,278.103,689.47,276.526z"/>
</g>
<g id="L">
	<path id="end_26_" fill="#FF173D" d="M67.53,453.72H78.47v8.515c0,2.448-1.984,4.432-4.432,4.432h-2.171
		c-2.396,0-4.338-1.942-4.338-4.338V453.72z"/>
	<path id="end_25_" fill="#FF173D" d="M78.47,273.667H67.53v-8.515c0-2.448,1.984-4.432,4.432-4.432h2.171
		c2.396,0,4.338,1.942,4.338,4.338V273.667z"/>
	<path id="tube_17_" fill="#01B900" d="M78.47,273.298v-8.24c0-2.396-1.942-4.338-4.338-4.338h-2.171
		c-1.977,0-3.631,1.303-4.203,3.09c0.072-0.038,0.151-0.068,0.226-0.103c2.305-3.6,9.265-2.714,9.265,2.668v6.388
		c-0.554-0.17-1.142-0.263-1.75-0.263h-5c-3.3,0-6,2.7-6,6v171c0,2.22,1.225,4.165,3.03,5.202v7.626c0,1.291,0.575,2.438,1.47,3.232
		v-10.26c0.481,0.125,0.982,0.199,1.5,0.199h5c0.518,0,1.019-0.074,1.5-0.199v10.209c0.897-0.811,1.47-1.972,1.47-3.276v-7.533
		c1.805-1.038,3.03-2.982,3.03-5.202v-171C81.5,276.28,80.275,274.335,78.47,273.298z"/>
	<path id="end_24_" fill="#FF173D" d="M175.027,462.97V452.03h8.515c2.448,0,4.432,1.984,4.432,4.432v2.171
		c0,2.396-1.942,4.338-4.338,4.338H175.027z"/>
	<path id="end_23_" fill="#FF173D" d="M100.973,452.03v10.941h-8.515c-2.448,0-4.432-1.984-4.432-4.432v-2.171
		c0-2.396,1.942-4.338,4.338-4.338H100.973z"/>
	<path id="tube_16_" fill="#01B900" d="M186.867,461.5h-11.066c0.125-0.481,0.199-0.982,0.199-1.5v-5c0-0.518-0.074-1.019-0.199-1.5
		h11.016c-0.811-0.897-1.972-1.47-3.276-1.47h-8.339c-1.038-1.805-2.982-3.03-5.202-3.03h-64c-2.22,0-4.165,1.225-5.202,3.03h-8.433
		c-2.396,0-4.338,1.942-4.338,4.338v2.171c0,1.977,1.303,3.631,3.09,4.203c-0.038-0.072-0.068-0.151-0.103-0.226
		c-3.6-2.305-2.714-9.265,2.668-9.265h6.582c-0.17,0.554-0.263,1.142-0.263,1.75v5c0,3.3,2.7,6,6,6h64
		c2.22,0,4.165-1.225,5.202-3.03h8.433C184.926,462.97,186.073,462.395,186.867,461.5z"/>
</g>
<g id="E2">
	<path id="end_22_" fill="#FF173D" d="M768.53,456.72h10.941v8.515c0,2.448-1.984,4.432-4.432,4.432h-2.171
		c-2.396,0-4.338-1.942-4.338-4.338V456.72z"/>
	<path id="end_21_" fill="#FF173D" d="M779.47,276.667H768.53v-8.515c0-2.448,1.984-4.432,4.432-4.432h2.171
		c2.396,0,4.338,1.942,4.338,4.338V276.667z"/>
	<path id="tube_15_" fill="#01B900" d="M779.47,276.298v-8.24c0-2.396-1.942-4.338-4.338-4.338h-2.171
		c-1.977,0-3.631,1.303-4.203,3.09c0.072-0.038,0.151-0.068,0.226-0.103c2.305-3.6,9.265-2.714,9.265,2.668v6.388
		c-0.554-0.17-1.142-0.263-1.75-0.263h-5c-3.3,0-6,2.7-6,6v171c0,2.22,1.225,4.165,3.03,5.202v7.626c0,1.291,0.575,2.438,1.47,3.232
		v-10.26c0.481,0.125,0.982,0.199,1.5,0.199h5c0.518,0,1.019-0.074,1.5-0.199v10.209c0.897-0.811,1.47-1.972,1.47-3.276v-7.533
		c1.805-1.038,3.03-2.982,3.03-5.202v-171C782.5,279.28,781.275,277.335,779.47,276.298z"/>
	<path id="end_20_" fill="#FF173D" d="M876.027,465.97V455.03h8.515c2.448,0,4.432,1.984,4.432,4.432v2.171
		c0,2.396-1.942,4.338-4.338,4.338H876.027z"/>
	<path id="end_19_" fill="#FF173D" d="M802.973,455.03v10.941h-8.515c-2.448,0-4.432-1.984-4.432-4.432v-2.171
		c0-2.396,1.942-4.338,4.338-4.338H802.973z"/>
	<path id="tube_14_" fill="#01B900" d="M887.867,464.5h-11.066c0.125-0.481,0.199-0.982,0.199-1.5v-5c0-0.518-0.074-1.019-0.199-1.5
		h11.016c-0.811-0.897-1.972-1.47-3.276-1.47h-8.339c-1.038-1.805-2.982-3.03-5.202-3.03h-64c-2.22,0-4.165,1.225-5.202,3.03h-7.433
		c-2.396,0-4.338,1.942-4.338,4.338v2.171c0,1.977,1.303,3.631,3.09,4.203c-0.038-0.072-0.068-0.151-0.103-0.226
		c-3.6-2.305-2.714-9.265,2.668-9.265h5.582c-0.17,0.554-0.263,1.142-0.263,1.75v5c0,3.3,2.7,6,6,6h64
		c2.22,0,4.165-1.225,5.202-3.03h8.433C885.926,465.97,887.073,465.395,887.867,464.5z"/>
	<path id="end_18_" fill="#FF173D" d="M864.027,367.97V357.03h8.515c2.448,0,4.432,1.984,4.432,4.432v2.171
		c0,2.396-1.942,4.338-4.338,4.338H864.027z"/>
	<path id="end_17_" fill="#FF173D" d="M800.973,357.03v10.941h-8.515c-2.448,0-4.432-1.984-4.432-4.432v-2.171
		c0-2.396,1.942-4.338,4.338-4.338H800.973z"/>
	<path id="tube_13_" fill="#01B900" d="M875.867,366.5h-9.76c0.125-0.481,0.199-0.982,0.199-1.5v-5c0-0.518-0.074-1.019-0.199-1.5
		h9.709c-0.811-0.897-1.972-1.47-3.276-1.47h-7.033c-1.038-1.805-2.982-3.03-5.202-3.03h-54c-2.318,0-4.335,1.334-5.333,3.271
		v-0.241h-8.608c-2.396,0-4.338,1.942-4.338,4.338v2.171c0,1.977,1.303,3.631,3.09,4.203c-0.038-0.072-0.068-0.151-0.103-0.226
		c-3.6-2.305-2.714-9.265,2.668-9.265h6.888c-0.17,0.554-0.263,1.142-0.263,1.75v5c0,3.3,2.7,6,6,6h54
		c2.22,0,4.165-1.225,5.202-3.03h7.126C873.926,367.97,875.073,367.395,875.867,366.5z"/>
	<path id="end_16_" fill="#FF173D" d="M874.027,274.97V264.03h8.515c2.448,0,4.432,1.984,4.432,4.432v2.171
		c0,2.396-1.942,4.338-4.338,4.338H874.027z"/>
	<path id="end_15_" fill="#FF173D" d="M800.973,264.03v10.941h-8.515c-2.448,0-4.432-1.984-4.432-4.432v-2.171
		c0-2.396,1.942-4.338,4.338-4.338H800.973z"/>
	<path id="tube_12_" fill="#01B900" d="M885.867,273.5h-11.066c0.125-0.481,0.199-0.982,0.199-1.5v-5c0-0.518-0.074-1.019-0.199-1.5
		h11.016c-0.811-0.897-1.972-1.47-3.276-1.47h-8.339c-1.038-1.805-2.982-3.03-5.202-3.03h-64c-2.22,0-4.165,1.225-5.202,3.03h-8.433
		c-2.396,0-4.338,1.942-4.338,4.338v2.171c0,1.977,1.303,3.631,3.09,4.203c-0.038-0.072-0.068-0.151-0.103-0.226
		c-3.6-2.305-2.714-9.265,2.668-9.265h6.582c-0.17,0.554-0.263,1.142-0.263,1.75v5c0,3.3,2.7,6,6,6h64
		c2.22,0,4.165-1.225,5.202-3.03h8.433C883.926,274.97,885.073,274.395,885.867,273.5z"/>
</g>
<g id="E">
	<path id="end_9_" fill="#FF173D" d="M319.027,43.97V33.03h8.515c2.448,0,4.432,1.984,4.432,4.432v2.171
		c0,2.396-1.942,4.338-4.338,4.338H319.027z"/>
	<path id="end_8_" fill="#FF173D" d="M233.973,33.03V43.97h-8.515c-2.448,0-4.432-1.984-4.432-4.432v-2.171
		c0-2.396,1.942-4.338,4.338-4.338H233.973z"/>
	<path id="tube_4_" fill="#01B900" d="M319.64,42.5c-0.011,0-0.02-0.003-0.031-0.003c0.125-0.48,0.198-0.98,0.198-1.497v-5
		c0-0.517-0.073-1.017-0.198-1.497c0.011,0,0.02-0.003,0.031-0.003h11.177c-0.811-0.897-1.972-1.47-3.276-1.47h-8.515v0.029
		c-1.033-1.821-2.988-3.059-5.22-3.059h-75c-2.22,0-4.165,1.225-5.202,3.03h-8.24c-2.396,0-4.338,1.942-4.338,4.338v2.171
		c0,1.977,1.303,3.631,3.09,4.203c-0.038-0.072-0.068-0.151-0.103-0.226c-3.6-2.305-2.714-9.265,2.668-9.265h6.388
		c-0.17,0.554-0.263,1.142-0.263,1.75v5c0,3.3,2.7,6,6,6h75c2.232,0,4.187-1.238,5.22-3.059v0.029h8.608
		c1.291,0,2.438-0.575,3.232-1.47H319.64z"/>
	<path id="end_7_" fill="#FF173D" d="M321.027,228.97V218.03h8.515c2.448,0,4.432,1.984,4.432,4.432v2.171
		c0,2.396-1.942,4.338-4.338,4.338H321.027z"/>
	<path id="end_6_" fill="#FF173D" d="M235.973,218.03v10.941h-8.515c-2.448,0-4.432-1.984-4.432-4.432v-2.171
		c0-2.396,1.942-4.338,4.338-4.338H235.973z"/>
	<path id="tube_3_" fill="#01B900" d="M321.64,227.5c-0.011,0-0.02-0.003-0.031-0.003c0.125-0.48,0.198-0.98,0.198-1.497v-5
		c0-0.517-0.073-1.017-0.198-1.497c0.011,0,0.02-0.003,0.031-0.003h11.177c-0.811-0.897-1.972-1.47-3.276-1.47h-8.515v0.029
		c-1.033-1.821-2.988-3.059-5.22-3.059h-75c-2.22,0-4.165,1.225-5.202,3.03h-8.24c-2.396,0-4.338,1.942-4.338,4.338v2.171
		c0,1.977,1.303,3.631,3.09,4.203c-0.038-0.072-0.068-0.151-0.103-0.226c-3.6-2.305-2.714-9.265,2.668-9.265h6.388
		c-0.17,0.554-0.263,1.142-0.263,1.75v5c0,3.3,2.7,6,6,6h75c2.232,0,4.187-1.238,5.22-3.059v0.029h8.608
		c1.291,0,2.438-0.575,3.232-1.47H321.64z"/>
	<path id="end_5_" fill="#FF173D" d="M299.027,136.97V126.03h8.515c2.448,0,4.432,1.984,4.432,4.432v2.171
		c0,2.396-1.942,4.338-4.338,4.338H299.027z"/>
	<path id="end_4_" fill="#FF173D" d="M234.973,126.03v10.941h-8.515c-2.448,0-4.432-1.984-4.432-4.432v-2.171
		c0-2.396,1.942-4.338,4.338-4.338H234.973z"/>
	<path id="tube_2_" fill="#01B900" d="M300.108,135.5c0.125-0.481,0.199-0.982,0.199-1.5v-5c0-0.518-0.074-1.019-0.199-1.5h10.709
		c-0.811-0.897-1.972-1.47-3.276-1.47h-8.033c-1.038-1.805-2.982-3.03-5.202-3.03h-54c-2.318,0-4.335,1.334-5.333,3.271v-0.241
		h-8.608c-2.396,0-4.338,1.942-4.338,4.338v2.171c0,1.977,1.303,3.631,3.09,4.203c-0.038-0.072-0.068-0.151-0.103-0.226
		c-3.6-2.305-2.714-9.265,2.668-9.265h6.888c-0.17,0.554-0.263,1.142-0.263,1.75v5c0,3.3,2.7,6,6,6h54
		c2.22,0,4.165-1.225,5.202-3.03h8.126c1.291,0,2.438-0.575,3.232-1.47H300.108z"/>
</g>
<g id="N">
	<path id="end_3_" fill="#FF173D" d="M81.406,37.113l-8.867,6.409l-4.988-6.901c-1.434-1.984-0.988-4.754,0.996-6.188l1.759-1.271
		c1.942-1.403,4.654-0.967,6.057,0.975L81.406,37.113z"/>
	<path id="end_2_" fill="#FF173D" d="M212.47,44.667H201.53v-8.515c0-2.448,1.984-4.432,4.432-4.432h2.171
		c2.396,0,4.338,1.942,4.338,4.338V44.667z"/>
	<g id="tube_1_">
		<path fill="#01B900" d="M66.824,33.104c-0.252,1.182-0.037,2.459,0.727,3.516l4.042,5.592c0.094-0.621,0.259-1.231,0.505-1.812
			L66.824,33.104z"/>
		<path fill="#01B900" d="M76.363,30.136c-0.756-1.046-1.894-1.639-3.085-1.758l5.399,7.47c0.651-0.027,1.3,0.025,1.932,0.164
			L76.363,30.136z"/>
		<path fill="#01B900" d="M211.25,37.375v7.292h1.22v-8.608c0-2.396-1.942-4.338-4.338-4.338h-2.171
			c-1.977,0-3.631,1.303-4.203,3.09c0.072-0.038,0.151-0.068,0.226-0.103C204.29,31.107,211.25,31.993,211.25,37.375z"/>
		<path fill="#1EC11A" d="M206.5,43c-4.142,0-7.5,3.358-7.5,7.5v151.065c0,4.275-0.464,7.054-0.927,8.685
			c-1.279-1.112-3.187-3.185-5.525-6.765L85.279,39.232c-1.118-1.713-2.818-2.814-4.67-3.221c-0.632-0.139-1.282-0.191-1.932-0.164
			c-1.302,0.055-2.607,0.442-3.778,1.207c-1.294,0.845-2.241,2.023-2.802,3.347c-0.246,0.581-0.41,1.19-0.505,1.812
			c-0.267,1.758,0.079,3.615,1.128,5.221l107.269,164.252c7.52,11.515,14.212,14.606,19.229,14.606c1.271,0,2.436-0.199,3.478-0.509
			c9.343-2.781,11.304-14.706,11.304-24.22V50.5C214,46.358,210.642,43,206.5,43z"/>
	</g>
	<path id="end_1_" fill="#FF173D" d="M67.53,224.72H78.47v8.515c0,2.448-1.984,4.432-4.432,4.432h-2.171
		c-2.396,0-4.338-1.942-4.338-4.338V224.72z"/>
	<path id="end" fill="#FF173D" d="M78.47,74.667H67.53v-8.515c0-2.448,1.984-4.432,4.432-4.432h2.171
		c2.396,0,4.338,1.942,4.338,4.338V74.667z"/>
	<path id="tube" fill="#01B900" d="M78.47,74.298v-8.24c0-2.396-1.942-4.338-4.338-4.338h-2.171c-1.977,0-3.631,1.303-4.203,3.09
		c0.072-0.038,0.151-0.068,0.226-0.103c2.305-3.6,9.265-2.714,9.265,2.668v6.388c-0.554-0.17-1.142-0.263-1.75-0.263h-5
		c-3.3,0-6,2.7-6,6v141c0,2.22,1.225,4.165,3.03,5.202v7.626c0,1.291,0.575,2.438,1.47,3.232v-10.26
		c0.481,0.125,0.982,0.199,1.5,0.199h5c0.518,0,1.019-0.074,1.5-0.199v10.209c0.897-0.811,1.47-1.972,1.47-3.276v-7.533
		c1.805-1.038,3.03-2.982,3.03-5.202v-141C81.5,77.28,80.275,75.335,78.47,74.298z"/>
</g>
</svg>
